<?xml version="1.0" encoding="utf-8"?>
<!-- Generator: Adobe Illustrator 14.0.0, SVG Export Plug-In . SVG Version: 6.00 Build 43363)  -->
<!DOCTYPE svg PUBLIC "-//W3C//DTD SVG 1.1//EN" "http://www.w3.org/Graphics/SVG/1.1/DTD/svg11.dtd">
<svg version="1.1" id="Layer_1" xmlns="http://www.w3.org/2000/svg" xmlns:xlink="http://www.w3.org/1999/xlink" x="0px" y="0px"
	 width="532.318px" height="96.808px" viewBox="0 0 532.318 96.808" enable-background="new 0 0 532.318 96.808"
	 xml:space="preserve">
<g>
	<path fill="#262323" d="M1.283,81.258v-2.591c2.471,0,3.707-0.761,3.707-2.283l0.12-3.234V48.796l-0.12-3.258
		c0-1.506-1.236-2.26-3.707-2.26v-2.59h17.363c3.964,0,7.095,1.751,9.395,5.252c2.299,3.501,3.449,8.27,3.449,14.307
		c0,6.321-1.182,11.404-3.544,15.246c-2.362,3.843-5.486,5.764-9.371,5.764H1.283z M13.213,43.279v29.871
		c0,2.427,0.147,3.952,0.441,4.579c0.294,0.625,1.068,0.938,2.323,0.938c4.495,0,6.743-6.247,6.743-18.74
		c0-11.098-2.629-16.648-7.886-16.648H13.213z"/>
	<path fill="#262323" d="M49.529,82.232c-4.294,0-7.7-1.554-10.22-4.659c-2.519-3.104-3.779-7.288-3.779-12.549
		c0-5.323,1.268-9.518,3.803-12.583c2.535-3.066,5.997-4.599,10.386-4.599s7.855,1.533,10.398,4.599
		c2.543,3.065,3.814,7.244,3.814,12.537c0,5.402-1.276,9.628-3.827,12.679C57.554,80.707,54.028,82.232,49.529,82.232z
		 M49.837,79.642c3.549,0,5.324-4.943,5.324-14.83c0-9.586-1.815-14.379-5.443-14.379c-3.612,0-5.419,4.857-5.419,14.569
		C44.3,74.762,46.146,79.642,49.837,79.642z"/>
	<path fill="#262323" d="M67.235,81.258v-2.591c1.881,0,2.989-0.328,3.324-0.986c0.335-0.657,0.502-2.166,0.502-4.527V56.921
		c0-2.36-0.167-3.87-0.502-4.527s-1.443-0.986-3.324-0.986v-2.591h7.89l16.232,20.267V56.919l-0.119-3.255
		c0-1.505-1.236-2.257-3.707-2.257v-2.591h11.717v2.591c-2.456,0-3.684,0.753-3.684,2.258l-0.143,3.256v24.598h-4.064L75.125,60.985
		v12.168l0.119,3.232c0,1.521,1.236,2.281,3.708,2.281v2.591H67.235z"/>
	<path fill="#262323" d="M105.855,81.258V79.19c0.254,0,0.861-0.04,1.817-0.119c0.973-0.079,1.55-0.367,1.733-0.866
		c0.184-0.5,0.275-1.644,0.275-3.432V52.072h-3.303c-1.601,0-2.5,0.271-2.698,0.809c-0.198,0.539-0.305,1.68-0.321,3.422v0.643
		h-2.591v-8.129h25.929v8.129h-2.59v-0.643c0-1.742-0.099-2.883-0.297-3.422c-0.198-0.538-1.105-0.809-2.721-0.809h-3.304v22.701
		c0,1.788,0.091,2.932,0.274,3.432c0.184,0.499,0.762,0.787,1.734,0.866c0.972,0.079,1.578,0.119,1.817,0.119v2.067H105.855z"/>
	<path fill="#262323" d="M149.133,81.258v-2.591c2.456,0,3.684-0.76,3.684-2.281l0.143-3.232V43.945h-4.135
		c-1.601,0-2.5,0.27-2.698,0.808c-0.198,0.539-0.305,1.671-0.321,3.398v0.665h-2.591v-8.128h27.593v8.128h-2.59v-0.665
		c0-1.727-0.104-2.86-0.31-3.398c-0.207-0.539-1.113-0.808-2.718-0.808h-4.125v29.208l0.12,3.232c0,1.521,1.235,2.281,3.707,2.281
		v2.591H149.133z"/>
	<path fill="#262323" d="M172.091,81.258v-2.591c2.471,0,3.707-0.76,3.707-2.281l0.12-3.232V56.921l-0.12-3.256
		c0-1.505-1.236-2.258-3.707-2.258v-2.591h16.198c8.531,0,12.796,2.616,12.796,7.846c0,3.979-2.201,6.761-6.604,8.346l5.364,9.692
		c1.192,2.17,2.603,3.492,4.235,3.967v2.591h-9.751l-7.713-15.092h-2.594v6.987l0.119,3.232c0,0.855,0.13,1.414,0.392,1.676
		c0.261,0.261,1.168,0.463,2.721,0.605v2.591H172.091z M184.022,51.407v12.169h1.29c5.113,0,7.67-2.18,7.67-6.536
		c0-3.755-2.262-5.633-6.786-5.633H184.022z"/>
	<path fill="#262323" d="M205.602,51.407v-2.591h15.567v2.591c-2.345,0-3.518,0.753-3.518,2.258l-0.119,3.256v11.479
		c0,4.438,0.417,7.503,1.25,9.198c0.833,1.695,2.354,2.543,4.561,2.543c4.254,0,6.382-3.913,6.382-11.741V56.921l-0.119-3.256
		c0-1.378-1.181-2.131-3.541-2.258v-2.591h11.55v2.591c-2.456,0.127-3.684,0.88-3.684,2.258l-0.143,3.256v11.479
		c0,9.222-3.941,13.833-11.823,13.833c-8.358,0-12.537-4.611-12.537-13.833V56.921l-0.12-3.256
		C209.309,52.16,208.073,51.407,205.602,51.407z"/>
	<path fill="#262323" d="M262.118,49.292v6.013h-2.59c-0.191-3.247-2.101-4.872-5.728-4.872c-3.787,0-5.68,1.52-5.68,4.559
		c0.007,1.742,1.715,3.508,5.125,5.299l2.378,1.238c5.677,2.965,8.516,6.571,8.516,10.816c0,2.995-1.194,5.392-3.581,7.189
		c-2.387,1.798-5.587,2.698-9.599,2.698c-2.902,0-6.241-0.404-10.016-1.212v-6.893h2.59c0,3.677,2.405,5.514,7.215,5.514
		c4.063,0,6.095-1.735,6.095-5.207c-0.004-1.948-1.68-3.803-5.026-5.562l-2.355-1.234c-5.647-2.963-8.47-6.479-8.47-10.551
		c0-6.163,3.87-9.246,11.611-9.246C255.393,47.842,258.565,48.326,262.118,49.292z"/>
	<path fill="#262323" d="M271.482,81.258V79.19c0.256,0,0.86-0.04,1.817-0.119c0.974-0.079,1.551-0.367,1.734-0.866
		c0.183-0.5,0.274-1.644,0.274-3.432V52.072h-3.303c-1.601,0-2.5,0.271-2.697,0.809c-0.199,0.539-0.306,1.68-0.321,3.422v0.643
		h-2.591v-8.129h25.929v8.129h-2.59v-0.643c0-1.742-0.1-2.883-0.297-3.422c-0.199-0.538-1.105-0.809-2.722-0.809h-3.303v22.701
		c0,1.788,0.091,2.932,0.274,3.432c0.183,0.499,0.761,0.787,1.734,0.866c0.971,0.079,1.578,0.119,1.816,0.119v2.067H271.482z"/>
	<path fill="#262323" d="M314.76,81.258v-2.591c2.456,0,3.685-0.76,3.685-2.281l0.143-3.232V43.945h-4.136
		c-1.601,0-2.499,0.27-2.697,0.808s-0.305,1.671-0.321,3.398v0.665h-2.59v-8.128h27.593v8.128h-2.591v-0.665
		c0-1.727-0.104-2.86-0.311-3.398s-1.113-0.808-2.718-0.808h-4.126v29.208l0.12,3.232c0,1.521,1.235,2.281,3.707,2.281v2.591H314.76
		z"/>
	<path fill="#262323" d="M369.732,48.816v2.591c-2.471,0-3.706,0.753-3.706,2.258l-0.12,3.256v16.232l0.12,3.232
		c0,1.521,1.235,2.281,3.706,2.281v2.591h-11.931V65.049h-8.151v16.209h-11.931v-2.591c2.456,0,3.684-0.76,3.684-2.281l0.143-3.232
		V56.921l-0.143-3.256c0-1.505-1.228-2.258-3.684-2.258v-2.591h11.931v12.977h8.151v-4.872l-0.118-3.256
		c0-1.505-1.229-2.258-3.685-2.258v-2.591H369.732z"/>
	<path fill="#262323" d="M388.08,81.258h-15.758v-2.591c2.456,0,3.685-0.76,3.685-2.281l0.118-3.232V56.921l-0.118-3.256
		c0-1.505-1.229-2.258-3.685-2.258v-2.591h15.758v2.591c-2.472,0-3.707,0.753-3.707,2.258l-0.119,3.256v16.232l0.119,3.232
		c0,1.521,1.235,2.281,3.707,2.281V81.258z"/>
	<path fill="#262323" d="M412.583,49.292v6.013h-2.591c-0.191-3.247-2.101-4.872-5.728-4.872c-3.787,0-5.681,1.52-5.681,4.559
		c0.008,1.742,1.716,3.508,5.125,5.299l2.379,1.238c5.677,2.965,8.515,6.571,8.515,10.816c0,2.995-1.193,5.392-3.58,7.189
		s-5.587,2.698-9.6,2.698c-2.902,0-6.241-0.404-10.016-1.212v-6.893h2.59c0,3.677,2.404,5.514,7.214,5.514
		c4.063,0,6.096-1.735,6.096-5.207c-0.004-1.948-1.68-3.803-5.026-5.562l-2.355-1.234c-5.647-2.963-8.471-6.479-8.471-10.551
		c0-6.163,3.871-9.246,11.611-9.246C405.858,47.842,409.031,48.326,412.583,49.292z"/>
	<path fill="#262323" d="M451.298,65.596v-2.59h11.931v17.396c-4.626,1.219-8.342,1.83-11.146,1.83
		c-5.308,0-9.503-1.905-12.584-5.716c-3.082-3.811-4.623-8.996-4.623-15.556c0-14.165,5.854-21.247,17.563-21.247
		c3.438,0,7.035,0.594,10.79,1.782v7.32h-2.923v-0.522c0-3.882-2.479-5.823-7.438-5.823c-3.265,0-5.594,1.426-6.988,4.278
		c-1.394,2.852-2.091,7.597-2.091,14.236c0,12.326,2.985,18.49,8.955,18.49c0.777,0,1.571-0.167,2.382-0.5v-7.866l-0.12-3.232
		C455.005,66.356,453.77,65.596,451.298,65.596z"/>
	<path fill="#262323" d="M466.581,51.407v-2.591h15.566v2.591c-2.345,0-3.517,0.753-3.517,2.258l-0.12,3.256v11.479
		c0,4.438,0.417,7.503,1.251,9.198c0.833,1.695,2.354,2.543,4.561,2.543c4.254,0,6.381-3.913,6.381-11.741V56.921l-0.118-3.256
		c0-1.378-1.181-2.131-3.541-2.258v-2.591h11.55v2.591c-2.456,0.127-3.684,0.88-3.684,2.258l-0.143,3.256v11.479
		c0,9.222-3.941,13.833-11.823,13.833c-8.358,0-12.537-4.611-12.537-13.833V56.921l-0.12-3.256
		C470.287,52.16,469.051,51.407,466.581,51.407z"/>
	<path fill="#262323" d="M508.337,81.258v-2.591c2.471,0,3.707-0.76,3.707-2.281l0.119-3.232v-5.917l-7.653-11.932
		c-1.615-2.52-3.081-3.817-4.396-3.897v-2.591h14.734v2.591l-1.315,0.023c-1.084,0.017-1.627,0.232-1.627,0.648
		c0,0.447,0.578,1.524,1.732,3.23l5.649,8.818h0.048l5.604-8.762c1.219-1.899,1.829-2.99,1.829-3.274
		c0-0.456-0.876-0.685-2.627-0.685v-2.591h7.914v2.591c-1.204,0.095-2.187,0.745-2.947,1.948l-1.235,1.997l-7.605,11.884v5.917
		l0.12,3.232c0,1.521,1.235,2.281,3.706,2.281v2.591H508.337z"/>
</g>
<g>
	<g>
		<path fill="#BFBCB1" d="M523.264,0H298.452c-3.3,0-6,2.7-6,6v18.534c0,3.3,2.7,6,6,6h185.35c0,0,10.178,2.036,0,14.25
			c0,0,14.248-4.072,15.605-14.25h23.857c3.3,0,6-2.7,6-6V6C529.264,2.7,526.564,0,523.264,0z"/>
	</g>
</g>
<g>
	<path fill="#FFFFFF" d="M299.599,7.911h1.468c0.304,0,0.507,0.311,0.608,0.931l1.718,7.479h0.071
		c1.336-5.254,2.075-8.021,2.219-8.302c0.119-0.071,0.274-0.107,0.465-0.107h1.181c0.382,0,0.572,0.191,0.572,0.573
		c0.835,3.352,1.456,5.94,1.861,7.765h0.035c1.24-4.956,1.969-7.699,2.183-8.23c0.12-0.071,0.275-0.107,0.466-0.107h1.288
		c0.238,0,0.357,0.096,0.357,0.286c-0.119,0.633-1.108,4.175-2.97,10.628c-0.185,0.906-0.399,1.36-0.644,1.36l-0.287,0.036h-1.002
		c-0.405,0-0.608-0.107-0.608-0.322c-0.119-0.269-0.763-2.916-1.932-7.944c-0.072,0.048-0.322,0.955-0.752,2.72l-1.538,5.403
		c-0.125,0.096-0.328,0.144-0.608,0.144h-0.966c-0.382,0-0.573-0.107-0.573-0.322c-0.071-0.119-0.691-2.493-1.86-7.121
		c-0.739-2.875-1.109-4.425-1.109-4.652C299.242,8.001,299.361,7.929,299.599,7.911z"/>
	<path fill="#FFFFFF" d="M318.51,7.303c0.358,0,0.537,0.167,0.537,0.5l0.036,0.358v3.614h0.143c0.687-0.525,1.414-0.788,2.183-0.788
		c2.027,0.406,3.089,1.67,3.186,3.793l0.071,0.608v4.08c0,0.5-0.168,0.751-0.502,0.751h-1.18c-0.358,0-0.537-0.167-0.537-0.501
		v-4.187c0-0.894-0.334-1.682-1.002-2.361c-0.191-0.143-0.405-0.215-0.645-0.215c-0.835,0-1.407,0.525-1.717,1.575v4.831
		c0,0.549-0.119,0.823-0.358,0.823l-0.25,0.036h-1.074c-0.357,0-0.536-0.167-0.536-0.501V7.84c0-0.358,0.167-0.537,0.501-0.537
		H318.51z"/>
	<path fill="#FFFFFF" d="M325.774,11.311h1.468c0.273,0,0.478,0.274,0.608,0.823l1.789,4.759l0.035,0.036h0.071l1.861-5.475
		c0.107-0.095,0.274-0.143,0.501-0.143h1.252c0.257,0,0.424,0.072,0.501,0.215c0,0.227-0.942,2.708-2.826,7.442
		c-0.734,1.599-1.461,2.887-2.183,3.865c-0.906,0.823-1.694,1.264-2.362,1.324c-0.274,0-0.501-0.561-0.68-1.682v-0.107
		c0-0.095,0.203-0.203,0.608-0.322c1.02-0.537,1.712-1.324,2.075-2.362c-2.057-5.087-3.119-7.782-3.185-8.087V11.49
		C325.381,11.37,325.536,11.311,325.774,11.311z"/>
	<path fill="#FFFFFF" d="M343.934,11.132h0.18c1.198,0,2.057,0.823,2.575,2.469c0.097,0.447,0.144,0.948,0.144,1.502v4.33
		c0,0.524-0.119,0.787-0.357,0.787h-1.073c-0.501,0-0.752-0.107-0.752-0.322l-0.036-0.322v-4.15c0-1.217-0.369-2.028-1.108-2.434
		l-0.43-0.071c-0.913,0-1.521,0.549-1.825,1.646v4.831c0,0.525-0.119,0.788-0.357,0.788l-0.394,0.036h-0.681
		c-0.5,0-0.751-0.107-0.751-0.322l-0.036-0.286v-5.689l-0.071-2.469c0.06-0.19,0.167-0.286,0.322-0.286h1.073
		c0.43,0,0.645,0.155,0.645,0.465c0,0.155,0.035,0.238,0.106,0.25h0.036C342.336,11.382,343.266,11.132,343.934,11.132z"/>
	<path fill="#FFFFFF" d="M352.182,10.81h0.322c1.168,0,2.194,0.454,3.077,1.36c0.787,0.93,1.181,2.04,1.181,3.328
		c0,2.153-1.014,3.656-3.041,4.509c-0.561,0.143-1.014,0.215-1.36,0.215h-0.179c-1.831,0-3.143-0.883-3.936-2.648
		c-0.239-0.566-0.358-1.198-0.358-1.896v-0.25c0-1.759,0.752-3.119,2.255-4.08C350.829,10.988,351.508,10.81,352.182,10.81z
		 M350.107,15.533c0,1.283,0.477,2.177,1.432,2.684c0.315,0.119,0.578,0.179,0.787,0.179c0.93,0,1.598-0.596,2.004-1.789
		c0.095-0.346,0.143-0.656,0.143-0.93V15.39c0-1.193-0.465-2.063-1.396-2.612c-0.292-0.095-0.555-0.143-0.787-0.143
		c-1.139,0-1.854,0.775-2.146,2.326L350.107,15.533z"/>
	<path fill="#FFFFFF" d="M361.289,9.021h0.035c0.216,0,0.323,0.203,0.323,0.608v1.109c0,0.191,0.119,0.286,0.357,0.286h1.359
		c0.286,0,0.43,0.155,0.43,0.465v0.93c0,0.286-0.19,0.429-0.572,0.429h-1.217c-0.238,0-0.357,0.096-0.357,0.287v3.614
		c0.154,1.025,0.44,1.538,0.858,1.538l0.858-0.107c0.215,0,0.322,0.322,0.322,0.966l0.036,0.358c0,0.382-0.168,0.572-0.501,0.572
		l-1.217,0.144c-0.507,0-1.115-0.227-1.825-0.68c-0.478-0.698-0.716-1.616-0.716-2.755v-3.614c0-0.215-0.131-0.322-0.394-0.322
		h-0.465c-0.286,0-0.43-0.167-0.43-0.501v-0.787c0-0.358,0.167-0.537,0.501-0.537c0.524,0,0.787-0.083,0.787-0.25V9.915
		c0-0.31,0.322-0.524,0.967-0.644C360.728,9.152,361.014,9.068,361.289,9.021z"/>
	<path fill="#FFFFFF" d="M372.373,9.021h0.035c0.216,0,0.323,0.203,0.323,0.608v1.109c0,0.191,0.119,0.286,0.357,0.286h1.359
		c0.286,0,0.43,0.155,0.43,0.465v0.93c0,0.286-0.19,0.429-0.572,0.429h-1.217c-0.238,0-0.357,0.096-0.357,0.287v3.614
		c0.154,1.025,0.44,1.538,0.858,1.538l0.858-0.107c0.215,0,0.322,0.322,0.322,0.966l0.036,0.358c0,0.382-0.168,0.572-0.501,0.572
		l-1.217,0.144c-0.507,0-1.115-0.227-1.825-0.68c-0.478-0.698-0.716-1.616-0.716-2.755v-3.614c0-0.215-0.131-0.322-0.394-0.322
		h-0.465c-0.286,0-0.43-0.167-0.43-0.501v-0.787c0-0.358,0.167-0.537,0.501-0.537c0.524,0,0.787-0.083,0.787-0.25V9.915
		c0-0.31,0.322-0.524,0.967-0.644C371.812,9.152,372.098,9.068,372.373,9.021z"/>
	<path fill="#FFFFFF" d="M379.735,10.81h0.322c1.592,0,2.642,0.799,3.148,2.397c0.096,0.4,0.144,0.793,0.144,1.181v2.434
		c0,1.21,0.047,2.165,0.143,2.862c0,0.239-0.132,0.358-0.394,0.358h-0.895c-0.478,0-0.716-0.095-0.716-0.286
		c-0.035,0-0.071-0.095-0.106-0.286h-0.072c-0.662,0.316-1.199,0.542-1.61,0.68l-0.68,0.072c-1.449,0-2.392-0.728-2.827-2.183
		l-0.036-0.501V17.25c0-0.996,0.537-1.819,1.611-2.469c0.936-0.5,2.069-0.751,3.398-0.751v-0.036
		c-0.137-0.906-0.591-1.359-1.359-1.359h-0.358c-0.566,0-1.222,0.203-1.968,0.608h-0.036c-0.238,0-0.44-0.358-0.608-1.074v-0.036
		c0-0.31,0.287-0.62,0.859-0.93C378.322,10.941,379.001,10.81,379.735,10.81z M377.981,17.25c0.096,0.764,0.405,1.145,0.931,1.145
		h0.286c0.436,0,0.877-0.215,1.324-0.644c0.215-0.328,0.322-0.626,0.322-0.895v-1.074h-0.107c-1.318,0-2.188,0.322-2.612,0.967
		C378.053,16.869,378.004,17.036,377.981,17.25z"/>
	<path fill="#FFFFFF" d="M387.714,7.303c0.358,0,0.537,0.167,0.537,0.5v6.441l0.071,0.071c1.502-1.813,2.386-2.839,2.648-3.077
		l0.214-0.036h1.574c0.382,0,0.572,0.107,0.572,0.322c0,0.149-0.989,1.234-2.969,3.256l-0.072,0.251
		c0,0.119,0.549,0.871,1.646,2.254l1.79,2.505l0.036,0.143c0,0.191-0.191,0.287-0.573,0.287h-1.718
		c-0.298-0.269-0.918-1.091-1.86-2.469l-0.895-1.181h-0.144c-0.215,0.149-0.321,0.352-0.321,0.608v2.469
		c0,0.382-0.168,0.573-0.502,0.573h-1.145c-0.357,0-0.536-0.167-0.536-0.501V7.84c0-0.358,0.166-0.537,0.5-0.537H387.714z"/>
	<path fill="#FFFFFF" d="M398.449,10.846h0.215c1.712,0,2.869,0.954,3.472,2.862c0.119,0.424,0.178,0.924,0.178,1.503
		c0,0.621-0.143,0.93-0.429,0.93l-0.322,0.036h-4.938l-0.071,0.072v0.072c-0.126,1.049,0.661,1.729,2.36,2.04h0.18
		c0.668,0,1.384-0.143,2.146-0.43c0.263,0,0.441,0.454,0.537,1.36v0.286c-0.311,0.257-1.312,0.471-3.006,0.645
		c-1.855-0.167-3.06-0.754-3.614-1.763c-0.733-0.93-1.031-1.833-0.895-2.71v-0.215c0-1.854,0.752-3.262,2.255-4.222
		C397.13,11,397.775,10.846,398.449,10.846z M396.553,14.209c0.047,0.107,0.095,0.167,0.143,0.179h3.148
		c0.167,0,0.251-0.071,0.251-0.214c-0.233-1.026-0.746-1.539-1.539-1.539h-0.215C397.667,12.635,397.071,13.159,396.553,14.209z"/>
	<path fill="#FFFFFF" d="M417.664,10.988h0.215c1.413,0,2.38,0.883,2.899,2.648l0.106,1.145v4.867c0,0.382-0.106,0.573-0.322,0.573
		h-1.18c-0.431,0-0.645-0.144-0.645-0.43l-0.036-0.322v-4.294c0-1.02-0.298-1.736-0.895-2.147c-0.221-0.072-0.411-0.107-0.572-0.107
		c-0.758,0-1.271,0.525-1.539,1.574v4.938c0,0.5-0.131,0.751-0.393,0.751l-0.323,0.036h-0.823c-0.429,0-0.644-0.144-0.644-0.43
		V15.39c0-1.646-0.465-2.469-1.396-2.469c-0.733,0-1.258,0.477-1.574,1.431c-0.048,0.096-0.071,0.227-0.071,0.394v4.688
		c0,0.5-0.132,0.751-0.395,0.751l-0.321,0.036h-0.823c-0.43,0-0.644-0.144-0.644-0.43v-5.94l-0.072-2.397
		c0-0.167,0.131-0.262,0.394-0.286h0.859c0.5,0,0.751,0.131,0.751,0.394c0.03,0.214,0.077,0.322,0.144,0.322h0.036
		c1.007-0.287,1.842-0.43,2.504-0.43h0.18c0.959,0.006,1.604,0.292,1.932,0.859h0.036C415.833,11.43,416.704,10.988,417.664,10.988z
		"/>
	<path fill="#FFFFFF" d="M421.814,11.311h1.468c0.274,0,0.478,0.274,0.608,0.823l1.789,4.759l0.036,0.036h0.071l1.86-5.475
		c0.107-0.095,0.274-0.143,0.501-0.143h1.252c0.257,0,0.424,0.072,0.502,0.215c0,0.227-0.942,2.708-2.827,7.442
		c-0.734,1.599-1.461,2.887-2.183,3.865c-0.906,0.823-1.694,1.264-2.362,1.324c-0.274,0-0.501-0.561-0.68-1.682v-0.107
		c0-0.095,0.203-0.203,0.608-0.322c1.02-0.537,1.712-1.324,2.075-2.362c-2.057-5.087-3.118-7.782-3.185-8.087V11.49
		C421.421,11.37,421.576,11.311,421.814,11.311z"/>
	<path fill="#FFFFFF" d="M434.303,11.204h1.252c0.358,0,0.537,0.143,0.537,0.429l1.396,5.26h0.071c0-0.208,0.597-2.069,1.789-5.582
		c0.119-0.071,0.274-0.107,0.465-0.107h1.003c0.214,0,0.369,0.143,0.465,0.429l1.61,5.224h0.036c0.953-3.453,1.49-5.302,1.609-5.546
		c0.119-0.071,0.274-0.107,0.466-0.107h1.252c0.263,0.029,0.394,0.113,0.394,0.25c-0.071,0.382-0.966,3.197-2.684,8.445
		c-0.095,0.215-0.215,0.322-0.357,0.322h-1.324c-0.269,0-0.46-0.263-0.573-0.787l-1.502-4.724h-0.036
		c-1.002,3.113-1.622,4.915-1.861,5.403c-0.083,0.072-0.227,0.107-0.429,0.107h-1.181c-0.269,0-0.53-0.584-0.787-1.753
		c-1.384-4.413-2.075-6.775-2.075-7.085C433.91,11.263,434.065,11.204,434.303,11.204z"/>
	<path fill="#FFFFFF" d="M450.968,10.81h0.323c1.168,0,2.194,0.454,3.076,1.36c0.787,0.93,1.182,2.04,1.182,3.328
		c0,2.153-1.014,3.656-3.042,4.509c-0.561,0.143-1.014,0.215-1.359,0.215h-0.18c-1.83,0-3.143-0.883-3.936-2.648
		c-0.238-0.566-0.357-1.198-0.357-1.896v-0.25c0-1.759,0.751-3.119,2.254-4.08C449.615,10.988,450.294,10.81,450.968,10.81z
		 M448.893,15.533c0,1.283,0.478,2.177,1.432,2.684c0.316,0.119,0.578,0.179,0.787,0.179c0.931,0,1.599-0.596,2.004-1.789
		c0.096-0.346,0.144-0.656,0.144-0.93V15.39c0-1.193-0.465-2.063-1.396-2.612c-0.293-0.095-0.556-0.143-0.788-0.143
		c-1.139,0-1.854,0.775-2.146,2.326L448.893,15.533z"/>
	<path fill="#FFFFFF" d="M461.399,10.988h0.18c0.404,0,0.608,0.155,0.608,0.465v1.324c-0.024,0.262-0.12,0.394-0.287,0.394
		l-0.608-0.072c-0.733,0-1.271,0.477-1.61,1.432c-0.071,0.381-0.106,0.787-0.106,1.216v3.829c0,0.43-0.191,0.645-0.573,0.645h-0.823
		c-0.501,0-0.751-0.107-0.751-0.322l-0.035-0.286v-3.686l-0.072-4.509c0-0.167,0.167-0.25,0.501-0.25h0.859
		c0.429,0,0.644,0.143,0.644,0.429c0,0.191,0.048,0.287,0.144,0.287C460.266,11.287,460.91,10.988,461.399,10.988z"/>
	<path fill="#FFFFFF" d="M470.202,7.088h1.073c0.358,0,0.537,0.167,0.537,0.501v9.554l0.071,2.577c0,0.089-0.071,0.185-0.215,0.286
		h-1.288c-0.381,0-0.572-0.191-0.572-0.572c0-0.096-0.024-0.144-0.071-0.144l-1.359,0.68c-0.376,0.12-0.758,0.203-1.146,0.251
		c-1.975,0-3.251-1.181-3.829-3.542l-0.071-0.966v-0.286c0-1.771,0.716-3.155,2.146-4.151c0.633-0.334,1.288-0.501,1.969-0.501
		c0.793,0,1.508,0.239,2.146,0.716V7.875c0-0.501,0.107-0.751,0.322-0.751L470.202,7.088z M465.55,15.39v0.251
		c0,1.365,0.536,2.225,1.61,2.576l0.501,0.071c0.93,0,1.562-0.548,1.896-1.646l0.036-0.357v-1.288c0-0.716-0.441-1.443-1.324-2.183
		c-0.238-0.095-0.441-0.143-0.607-0.143c-0.931,0-1.575,0.548-1.933,1.646C465.61,14.626,465.55,14.984,465.55,15.39z"/>
	<path fill="#FFFFFF" d="M482.225,7.088h0.25c0.668,0,1.168,0.131,1.503,0.394v0.286c-0.084,0.954-0.238,1.431-0.465,1.431h-0.072
		c-0.328-0.119-0.638-0.19-0.931-0.214c-0.912,0.095-1.341,0.811-1.288,2.147h0.036l0.144,0.036h1.252
		c0.382,0,0.572,0.167,0.572,0.501v0.787c0,0.382-0.19,0.573-0.572,0.573h-1.252l-0.18,0.179v6.333c0,0.429-0.155,0.645-0.465,0.645
		l-0.429,0.036h-0.43c-0.549,0-0.823-0.096-0.823-0.287l-0.036-0.214v-6.227c0-0.31-0.107-0.465-0.321-0.465
		c-0.55,0-0.823-0.096-0.823-0.287l-0.036-0.322v-0.716c0-0.358,0.167-0.537,0.501-0.537h0.502c0.118,0,0.178-0.024,0.178-0.071
		c0.292-1.968,0.722-3.078,1.289-3.328C480.876,7.315,481.509,7.088,482.225,7.088z"/>
	<path fill="#FFFFFF" d="M488.942,10.81h0.323c1.168,0,2.194,0.454,3.077,1.36c0.786,0.93,1.181,2.04,1.181,3.328
		c0,2.153-1.014,3.656-3.042,4.509c-0.561,0.143-1.014,0.215-1.359,0.215h-0.18c-1.83,0-3.143-0.883-3.936-2.648
		c-0.238-0.566-0.357-1.198-0.357-1.896v-0.25c0-1.759,0.751-3.119,2.254-4.08C487.588,10.988,488.268,10.81,488.942,10.81z
		 M486.867,15.533c0,1.283,0.478,2.177,1.432,2.684c0.316,0.119,0.579,0.179,0.787,0.179c0.931,0,1.599-0.596,2.004-1.789
		c0.096-0.346,0.144-0.656,0.144-0.93V15.39c0-1.193-0.465-2.063-1.396-2.612c-0.293-0.095-0.556-0.143-0.788-0.143
		c-1.139,0-1.854,0.775-2.146,2.326L486.867,15.533z"/>
	<path fill="#FFFFFF" d="M499.374,10.988h0.179c0.405,0,0.608,0.155,0.608,0.465v1.324c-0.023,0.262-0.119,0.394-0.286,0.394
		l-0.608-0.072c-0.733,0-1.271,0.477-1.61,1.432c-0.071,0.381-0.107,0.787-0.107,1.216v3.829c0,0.43-0.191,0.645-0.572,0.645h-0.823
		c-0.501,0-0.752-0.107-0.752-0.322l-0.035-0.286v-3.686l-0.071-4.509c0-0.167,0.167-0.25,0.501-0.25h0.859
		c0.429,0,0.644,0.143,0.644,0.429c0,0.191,0.048,0.287,0.143,0.287C498.241,11.287,498.884,10.988,499.374,10.988z"/>
	<path fill="#FFFFFF" d="M507.174,7.804h0.107c0.543,0,0.925,0.322,1.145,0.966v0.358c-0.185,0.716-0.543,1.073-1.073,1.073h-0.251
		c-0.459,0-0.805-0.298-1.037-0.895l-0.036-0.25V8.949c0-0.513,0.286-0.882,0.859-1.109L507.174,7.804z M507.818,11.204
		c0.382,0,0.573,0.191,0.573,0.572v7.693c0,0.5-0.144,0.751-0.43,0.751h-1.36c-0.286,0-0.429-0.203-0.429-0.608V11.74
		c0-0.358,0.167-0.537,0.501-0.537H507.818z"/>
	<path fill="#FFFFFF" d="M513.382,9.021h0.035c0.216,0,0.322,0.203,0.322,0.608v1.109c0,0.191,0.12,0.286,0.358,0.286h1.359
		c0.286,0,0.43,0.155,0.43,0.465v0.93c0,0.286-0.191,0.429-0.573,0.429h-1.216c-0.238,0-0.358,0.096-0.358,0.287v3.614
		c0.155,1.025,0.441,1.538,0.858,1.538l0.859-0.107c0.215,0,0.322,0.322,0.322,0.966l0.035,0.358c0,0.382-0.167,0.572-0.501,0.572
		l-1.216,0.144c-0.508,0-1.115-0.227-1.825-0.68c-0.478-0.698-0.716-1.616-0.716-2.755v-3.614c0-0.215-0.132-0.322-0.394-0.322
		h-0.465c-0.287,0-0.43-0.167-0.43-0.501v-0.787c0-0.358,0.167-0.537,0.501-0.537c0.524,0,0.787-0.083,0.787-0.25V9.915
		c0-0.31,0.322-0.524,0.966-0.644C512.821,9.152,513.108,9.068,513.382,9.021z"/>
	<path fill="#FFFFFF" d="M519.259,8.699h0.251c1.342,0,2.225,0.608,2.647,1.825l0.072,0.537v0.286c0,0.919-0.608,2.028-1.825,3.328
		c-0.43,0.644-0.645,1.312-0.645,2.004v0.143c-0.059,0.286-0.274,0.429-0.644,0.429c-0.477-0.042-0.716-0.125-0.716-0.25
		c0-1.425,0.466-2.63,1.396-3.614c0.573-0.733,0.858-1.342,0.858-1.824v-0.251c0-0.662-0.381-1.103-1.145-1.324l-0.501-0.036
		c-0.524,0-1.098,0.167-1.718,0.501h-0.035l-0.18-0.608V9.665c0-0.441,0.585-0.751,1.754-0.93L519.259,8.699z M519.045,18.646h0.143
		c0.478,0.096,0.716,0.334,0.716,0.716v0.143c0,0.4-0.263,0.638-0.787,0.716c-0.454,0-0.716-0.274-0.787-0.823
		C518.424,18.896,518.663,18.646,519.045,18.646z"/>
</g>
<rect y="90.723" fill="#010302" width="532.318" height="6.085"/>
</svg>
